<svg xmlns="http://www.w3.org/2000/svg" width="15" height="15" viewBox="0 0 15 15"><path fill="#f7de3a" d="M3.6,6.14A5.21,5.21,0,0,0,0,8.34a7.4,7.4,0,0,0,2.16,4.48A7.46,7.46,0,0,0,6.64,15,5.25,5.25,0,0,0,8.86,11.4a11.91,11.91,0,0,1,.63-2.09,3.26,3.26,0,0,1,.37-.72,4.45,4.45,0,0,1,2.51-1.91,4.4,4.4,0,0,1,2.59,0A7.57,7.57,0,0,0,12.8,2.2,7.4,7.4,0,0,0,8.32,0a4.4,4.4,0,0,1,0,2.59A4.45,4.45,0,0,1,6.41,5.14a4.42,4.42,0,0,1-.72.37A12.44,12.44,0,0,1,3.6,6.14Zm6.8,3.54a12.94,12.94,0,0,0-.56,1.93A5.79,5.79,0,0,1,8.12,15,7.53,7.53,0,0,0,15,7.77a.71.71,0,0,0-.18-.08,3.25,3.25,0,0,0-2.16-.05,3.56,3.56,0,0,0-2,1.48ZM0,6.88A5.74,5.74,0,0,1,3.39,5.16,12.94,12.94,0,0,0,5.32,4.6c.19-.1.39-.2.56-.31A3.45,3.45,0,0,0,7.36,2.34,3.37,3.37,0,0,0,7.31.18c0-.06-.06-.12-.08-.18A7.53,7.53,0,0,0,0,6.88Z"/></svg>
