<svg width="21" height="20" viewBox="0 0 21 20" fill="none" xmlns="http://www.w3.org/2000/svg">
<path d="M15.0055 13.8739C15.0055 16.7782 12.6953 19.1326 9.84553 19.1326C6.99575 19.1326 4.68555 16.7782 4.68555 13.8739C4.68555 10.9697 8.54613 8.60059 11.3959 8.60059C14.2457 8.60059 15.0055 10.9697 15.0055 13.8739Z" fill="white"/>
<path fill-rule="evenodd" clip-rule="evenodd" d="M11.668 0.0654297C11.668 0.0654297 10.9749 3.07668 12.7077 5.76799C14.4398 8.4593 20.3552 13.7627 11.988 18.6923C11.988 18.6923 13.76 16.174 12.8673 14.4552C11.9747 12.7364 10.0563 11.4572 10.3756 8.76593C10.3756 8.76593 7.84455 9.81887 8.96341 14.5882C8.96341 14.5882 7.53792 14.0687 6.93797 12.6632C6.93797 12.6632 6.05195 15.421 7.67763 18.6458C7.67763 18.6458 -0.915826 14.5477 6.01204 6.58748C6.01204 6.58748 6.1584 9.18566 7.18472 9.90536C7.18472 9.90536 5.49252 2.87044 11.668 0.0654297Z" fill="#FF6536"/>
</svg>